HIERARCHY
ROOT Hips
{
	OFFSET 0.000000 0.000000 0.000000
	CHANNELS 6 Xposition Yposition Zposition Zrotation Yrotation Xrotation 
	JOINT LowerBack
	{
		OFFSET 0.000000 0.000000 0.000000
		CHANNELS 3 Zrotation Yrotation Xrotation
		JOINT Spine
		{
			OFFSET 0.028270 2.035590 -0.193380
			CHANNELS 3 Zrotation Yrotation Xrotation
			JOINT Spine1
			{
				OFFSET 0.056720 2.048850 -0.042750
				CHANNELS 3 Zrotation Yrotation Xrotation
				JOINT Neck
				{
					OFFSET 0.000000 0.000000 0.000000
					CHANNELS 3 Zrotation Yrotation Xrotation
					JOINT Neck1
					{
						OFFSET -0.054170 1.746240 0.172020
						CHANNELS 3 Zrotation Yrotation Xrotation
						JOINT Head
						{
							OFFSET 0.104070 1.761360 -0.123970
							CHANNELS 3 Zrotation Yrotation Xrotation
							End Site
							{
								OFFSET 0.000000 0.000000 0.000000
							}
						}
					}
				}
				JOINT LeftShoulder
				{
					OFFSET 0.000000 0.000000 0.000000
					CHANNELS 3 Zrotation Yrotation Xrotation
					JOINT LeftArm
					{
						OFFSET 3.362410 1.200890 -0.311210
						CHANNELS 3 Zrotation Yrotation Xrotation
						JOINT LeftForeArm
						{
							OFFSET 4.983000 -0.000000 -0.000000
							CHANNELS 3 Zrotation Yrotation Xrotation
							JOINT LeftHand
							{
								OFFSET 3.483560 -0.000000 -0.000000
								CHANNELS 3 Zrotation Yrotation Xrotation
								JOINT LeftFingerBase
								{
									OFFSET 0.000000 0.000000 0.000000
									CHANNELS 3 Zrotation Yrotation Xrotation
									JOINT LeftHandIndex1
									{
										OFFSET 0.715260 -0.000000 -0.000000
										CHANNELS 3 Zrotation Yrotation Xrotation
										End Site
										{
											OFFSET 0.000000 0.000000 0.000000
										}
									}
								}
								JOINT LThumb
								{
									OFFSET 0.000000 0.000000 0.000000
									CHANNELS 3 Zrotation Yrotation Xrotation
									End Site
									{
										OFFSET 0.000000 0.000000 0.000000
									}
								}
							}
						}
					}
				}
				JOINT RightShoulder
				{
					OFFSET 0.000000 0.000000 0.000000
					CHANNELS 3 Zrotation Yrotation Xrotation
					JOINT RightArm
					{
						OFFSET -3.136600 1.374050 -0.404650
						CHANNELS 3 Zrotation Yrotation Xrotation
						JOINT RightForeArm
						{
							OFFSET -5.241900 -0.000000 -0.000000
							CHANNELS 3 Zrotation Yrotation Xrotation
							JOINT RightHand
							{
								OFFSET -3.444170 -0.000000 -0.000000
								CHANNELS 3 Zrotation Yrotation Xrotation
								JOINT RightFingerBase
								{
									OFFSET 0.000000 0.000000 0.000000
									CHANNELS 3 Zrotation Yrotation Xrotation
									JOINT RightHandIndex1
									{
										OFFSET -0.622530 -0.000000 -0.000000
										CHANNELS 3 Zrotation Yrotation Xrotation
										End Site
										{
											OFFSET 0.000000 0.000000 0.000000
										}
									}
								}
								JOINT RThumb
								{
									OFFSET 0.000000 0.000000 0.000000
									CHANNELS 3 Zrotation Yrotation Xrotation
									End Site
									{
										OFFSET 0.000000 0.000000 0.000000
									}
								}
							}
						}
					}
				}
			}
		}
	}
}
}
MOTION
Frames: 10
Frame Time: 0.008333
1.945504 17.929704 -0.998621 6.868617 64.976622 25.668290 2.619110 -5.885676 -11.291062 1.214827 -6.369146 -5.106262 -3.776103 -6.641974 -0.767938 6.396781 -19.110368 -7.353568 -2.833425 -0.237072 0.249936 0.000000 0.000000 0.000000 6.390655 -0.885952 -2.085890 -79.365741 -16.914826 33.940496 -179.478946 -65.619988 179.837869 17.519804 -18.695558 -3.233564 -0.658069 1.434426 -0.000000 0.000000 0.000000 0.000000 0.000000 0.000000 0.000000 3.059194 -17.129149 -1.401980 60.994723 -16.744621 25.015836 179.918440 72.168723 179.923282 -14.798264 28.005795 -3.882902 0.223170 -0.845987 -0.000000 0.000000 0.000000 0.000000 0.000000 0.000000 0.000000 
2.156565 18.018922 -0.916482 6.255916 64.526228 25.000033 2.805058 -6.028984 -11.214833 1.311087 -6.529612 -5.117268 -3.614059 -6.821382 -0.770245 6.318382 -19.564491 -7.424316 -2.657116 -0.222233 0.232917 0.000000 0.000000 0.000000 6.512235 -1.145918 -2.120105 -80.238887 -16.614928 34.571940 -179.544948 -66.154936 179.842562 17.006236 -18.493272 -3.101460 -0.632891 1.418720 -0.000000 0.000000 0.000000 0.000000 0.000000 0.000000 0.000000 2.214586 -17.613520 -1.358915 60.621512 -17.189378 24.384604 179.916373 71.409695 179.922499 -14.708919 28.217068 -3.889924 0.221019 -0.854019 0.000000 0.000000 0.000000 0.000000 0.000000 0.000000 0.000000 
2.362477 18.095387 -0.833750 5.836399 64.079994 24.480527 2.905571 -6.170269 -11.079147 1.383912 -6.676477 -5.116760 -3.472089 -6.984806 -0.787330 6.255793 -19.961166 -7.485018 -2.480435 -0.207330 0.217505 0.000000 0.000000 0.000000 6.652137 -1.420518 -2.153365 -81.031575 -16.346258 35.127352 -179.611167 -66.705340 179.846008 16.595780 -18.258563 -2.984992 -0.610588 1.400696 -0.000000 0.000000 0.000000 0.000000 0.000000 0.000000 0.000000 1.376729 -18.026392 -1.301970 60.370133 -17.660487 23.719424 179.920327 70.637058 179.921187 -14.550016 28.429492 -3.877954 0.216585 -0.863558 0.000000 0.000000 0.000000 0.000000 0.000000 0.000000 0.000000 
2.563581 18.158524 -0.750589 5.617480 63.634893 24.117912 2.916615 -6.310894 -10.891921 1.432431 -6.810797 -5.106199 -3.349087 -7.133101 -0.821318 6.204266 -20.294336 -7.533426 -2.306691 -0.192703 0.204527 0.000000 0.000000 0.000000 6.805357 -1.718894 -2.185429 -81.741024 -16.089609 35.593660 -179.675550 -67.253674 179.848446 16.268010 -18.000727 -2.881750 -0.590622 1.381166 -0.000000 0.000000 0.000000 0.000000 0.000000 0.000000 0.000000 0.552117 -18.359029 -1.232138 60.225234 -18.170654 23.027175 179.929943 69.845679 179.919393 -14.327603 28.644554 -3.848388 0.210033 -0.874538 0.000000 0.000000 0.000000 0.000000 0.000000 0.000000 0.000000 
2.760414 18.208071 -0.667213 5.603129 63.184333 23.915518 2.836134 -6.450968 -10.659667 1.455876 -6.932962 -5.083984 -3.245837 -7.266139 -0.861928 6.166222 -20.565911 -7.577891 -2.138029 -0.178425 0.191684 0.000000 0.000000 0.000000 6.951907 -1.997008 -2.211720 -82.364570 -15.883056 35.999807 -179.727982 -67.812917 179.850261 16.018507 -17.729731 -2.792207 -0.573877 1.360784 0.000000 0.000000 0.000000 0.000000 0.000000 0.000000 0.000000 -0.238603 -18.613476 -1.157062 60.158067 -18.711063 22.321417 179.945431 69.028810 179.917133 -14.064976 28.858104 -3.806722 0.201966 -0.886884 0.000000 0.000000 0.000000 0.000000 0.000000 0.000000 0.000000 
2.953769 18.244065 -0.583942 5.789319 62.720648 23.866607 2.664724 -6.589516 -10.388086 1.454628 -7.042505 -5.051667 -3.159696 -7.383562 -0.911136 6.137347 -20.774187 -7.615809 -1.977454 -0.164802 0.179917 0.000000 0.000000 0.000000 7.081448 -2.262635 -2.231746 -82.908279 -15.702056 36.335792 -179.768665 -68.373368 179.851705 15.823917 -17.459893 -2.713853 -0.559537 1.340338 0.000000 0.000000 0.000000 0.000000 0.000000 0.000000 0.000000 -0.988551 -18.787093 -1.078353 60.147303 -19.281918 21.607423 179.966218 68.187435 179.914459 -13.777823 29.072617 -3.757450 0.192807 -0.900475 0.000000 0.000000 0.000000 0.000000 0.000000 0.000000 0.000000 
3.144604 18.266897 -0.501159 6.155664 62.232277 23.948029 2.410256 -6.723126 -10.081167 1.430339 -7.137504 -5.009464 -3.089162 -7.483507 -0.965245 6.116614 -20.922675 -7.649232 -1.827295 -0.152009 0.168773 0.000000 0.000000 0.000000 7.174975 -2.499246 -2.242687 -83.378208 -15.547821 36.611576 -179.794921 -68.940087 179.853050 15.670974 -17.206190 -2.646375 -0.547497 1.320524 0.000000 0.000000 0.000000 0.000000 0.000000 0.000000 0.000000 -1.685279 -18.884238 -1.000310 60.167437 -19.868272 20.894131 179.991802 67.325733 179.911440 -13.488139 29.287609 -3.706272 0.183178 -0.915165 0.000000 0.000000 0.000000 0.000000 0.000000 0.000000 0.000000 
3.333981 18.277264 -0.419392 6.655083 61.706888 24.110711 2.091843 -6.845722 -9.740570 1.386861 -7.214534 -4.958304 -3.032796 -7.562849 -1.023224 6.101875 -21.015065 -7.677522 -1.689938 -0.140263 0.158539 0.000000 0.000000 0.000000 7.213601 -2.699991 -2.242045 -83.781645 -15.410699 36.830562 -179.806706 -69.515997 179.854493 15.545472 -16.985010 -2.589465 -0.537376 1.302020 0.000000 0.000000 0.000000 0.000000 0.000000 0.000000 0.000000 -2.319677 -18.909576 -0.925534 60.196624 -20.452645 20.188074 -179.978789 66.454928 179.908161 -13.212909 29.501775 -3.657986 0.173611 -0.930716 0.000000 0.000000 0.000000 0.000000 0.000000 0.000000 0.000000 
3.522852 18.276019 -0.339076 7.218224 61.134824 24.285834 1.737992 -6.949747 -9.366712 1.329879 -7.269614 -4.899502 -2.989791 -7.618035 -1.085202 6.091656 -21.055589 -7.698910 -1.567438 -0.129775 0.149798 0.000000 0.000000 0.000000 7.182387 -2.862085 -2.227971 -84.127653 -15.277204 36.994403 -179.805561 -70.101569 179.856148 15.436112 -16.809975 -2.542822 -0.528777 1.285365 0.000000 0.000000 0.000000 0.000000 0.000000 0.000000 0.000000 -2.885748 -18.868511 -0.855719 60.219516 -21.014954 19.494344 -179.946684 65.586384 179.904706 -12.963732 29.713436 -3.615587 0.164530 -0.946941 0.000000 0.000000 0.000000 0.000000 0.000000 0.000000 0.000000 
3.711984 18.263874 -0.260461 7.767214 60.512267 24.399957 1.381034 -7.028045 -8.960277 1.265874 -7.299436 -4.834651 -2.959903 -7.646222 -1.151927 6.085148 -21.049286 -7.710976 -1.461140 -0.120709 0.143297 0.000000 0.000000 0.000000 7.072424 -2.986377 -2.199648 -84.424002 -15.131275 37.103266 -179.794652 -70.699493 179.858060 15.334679 -16.692575 -2.506548 -0.521209 1.270845 0.000000 0.000000 0.000000 0.000000 0.000000 0.000000 0.000000 -3.380010 -18.767685 -0.791744 60.226963 -21.535948 18.819815 -179.913323 64.736904 179.901164 -12.744989 29.919801 -3.580283 0.156181 -0.963549 0.000000 0.000000 0.000000 0.000000 0.000000 0.000000 0.000000 
